<mxfile host="65bd71144e">
    <diagram id="yUIq9OjsWsYa8B09KO9P" name="observer_interface">
        <mxGraphModel dx="856" dy="607" grid="1" gridSize="10" guides="1" tooltips="1" connect="1" arrows="1" fold="1" page="1" pageScale="1" pageWidth="827" pageHeight="1169" math="0" shadow="0">
            <root>
                <mxCell id="0"/>
                <mxCell id="1" parent="0"/>
                <mxCell id="5" style="edgeStyle=orthogonalEdgeStyle;rounded=0;orthogonalLoop=1;jettySize=auto;html=1;exitX=0.5;exitY=1;exitDx=0;exitDy=0;" parent="1" edge="1">
                    <mxGeometry relative="1" as="geometry">
                        <mxPoint x="660" y="375" as="sourcePoint"/>
                        <mxPoint x="660" y="375" as="targetPoint"/>
                    </mxGeometry>
                </mxCell>
                <mxCell id="8" style="edgeStyle=orthogonalEdgeStyle;rounded=0;orthogonalLoop=1;jettySize=auto;html=1;exitX=0.5;exitY=1;exitDx=0;exitDy=0;" parent="1" edge="1">
                    <mxGeometry relative="1" as="geometry">
                        <mxPoint x="380" y="280" as="sourcePoint"/>
                        <mxPoint x="380" y="280" as="targetPoint"/>
                    </mxGeometry>
                </mxCell>
                <mxCell id="47" style="edgeStyle=none;html=1;exitX=1;exitY=0.5;exitDx=0;exitDy=0;" parent="1" source="15" edge="1">
                    <mxGeometry relative="1" as="geometry">
                        <mxPoint x="320" y="140" as="targetPoint"/>
                    </mxGeometry>
                </mxCell>
                <mxCell id="15" value="&lt;p style=&quot;margin: 0px ; margin-top: 4px ; text-align: center&quot;&gt;&lt;i&gt;&amp;lt;&amp;lt;Interface&amp;gt;&amp;gt;&lt;/i&gt;&lt;br&gt;&lt;b&gt;&lt;font style=&quot;font-size: 14px&quot;&gt;Observable&lt;/font&gt;&lt;/b&gt;&lt;/p&gt;&lt;hr size=&quot;1&quot;&gt;&lt;p style=&quot;margin: 0px 0px 0px 4px; font-size: 13px;&quot;&gt;&lt;font style=&quot;font-size: 13px;&quot;&gt;&lt;i style=&quot;&quot;&gt;+ attach(Observer): void&lt;br&gt;+ detatch(Observer): void&lt;br&gt;&lt;/i&gt;&lt;/font&gt;&lt;/p&gt;&lt;p style=&quot;margin: 0px 0px 0px 4px; font-size: 13px;&quot;&gt;&lt;font style=&quot;font-size: 13px;&quot;&gt;&lt;i style=&quot;&quot;&gt;+ notifyObservers(): void&lt;/i&gt;&lt;/font&gt;&lt;br&gt;&lt;/p&gt;" style="verticalAlign=top;align=left;overflow=fill;fontSize=12;fontFamily=Helvetica;html=1;" parent="1" vertex="1">
                    <mxGeometry x="80" y="80" width="240" height="120" as="geometry"/>
                </mxCell>
                <mxCell id="20" value="" style="endArrow=block;dashed=1;endFill=0;endSize=12;html=1;exitX=0.5;exitY=0;exitDx=0;exitDy=0;entryX=0.5;entryY=1;entryDx=0;entryDy=0;" parent="1" source="37" target="15" edge="1">
                    <mxGeometry width="160" relative="1" as="geometry">
                        <mxPoint x="190" y="245" as="sourcePoint"/>
                        <mxPoint x="490" y="280" as="targetPoint"/>
                    </mxGeometry>
                </mxCell>
                <mxCell id="31" value="" style="endArrow=open;endFill=1;endSize=12;html=1;exitX=-0.011;exitY=0.193;exitDx=0;exitDy=0;entryX=1.003;entryY=0.225;entryDx=0;entryDy=0;entryPerimeter=0;exitPerimeter=0;" parent="1" source="52" target="42" edge="1">
                    <mxGeometry width="160" relative="1" as="geometry">
                        <mxPoint x="260" y="470" as="sourcePoint"/>
                        <mxPoint x="140" y="620" as="targetPoint"/>
                        <Array as="points"/>
                    </mxGeometry>
                </mxCell>
                <mxCell id="35" value="" style="endArrow=open;endFill=1;endSize=12;html=1;entryX=0;entryY=0.5;entryDx=0;entryDy=0;exitX=1;exitY=0.5;exitDx=0;exitDy=0;" parent="1" source="15" edge="1">
                    <mxGeometry width="160" relative="1" as="geometry">
                        <mxPoint x="290" y="118" as="sourcePoint"/>
                        <mxPoint x="480" y="140" as="targetPoint"/>
                        <Array as="points"/>
                    </mxGeometry>
                </mxCell>
                <mxCell id="37" value="Subject" style="swimlane;fontStyle=1;align=center;verticalAlign=top;childLayout=stackLayout;horizontal=1;startSize=26;horizontalStack=0;resizeParent=1;resizeParentMax=0;resizeLast=0;collapsible=1;marginBottom=0;" parent="1" vertex="1">
                    <mxGeometry x="80" y="280" width="240" height="242" as="geometry"/>
                </mxCell>
                <mxCell id="38" value="- state: String" style="text;strokeColor=none;fillColor=none;align=left;verticalAlign=top;spacingLeft=4;spacingRight=4;overflow=hidden;rotatable=0;points=[[0,0.5],[1,0.5]];portConstraint=eastwest;" parent="37" vertex="1">
                    <mxGeometry y="26" width="240" height="26" as="geometry"/>
                </mxCell>
                <mxCell id="41" value="- observers: List&lt;Observer&gt;" style="text;strokeColor=none;fillColor=none;align=left;verticalAlign=top;spacingLeft=4;spacingRight=4;overflow=hidden;rotatable=0;points=[[0,0.5],[1,0.5]];portConstraint=eastwest;" parent="37" vertex="1">
                    <mxGeometry y="52" width="240" height="26" as="geometry"/>
                </mxCell>
                <mxCell id="39" value="" style="line;strokeWidth=1;fillColor=none;align=left;verticalAlign=middle;spacingTop=-1;spacingLeft=3;spacingRight=3;rotatable=0;labelPosition=right;points=[];portConstraint=eastwest;strokeColor=inherit;" parent="37" vertex="1">
                    <mxGeometry y="78" width="240" height="8" as="geometry"/>
                </mxCell>
                <mxCell id="40" value="+ Subject()" style="text;strokeColor=none;fillColor=none;align=left;verticalAlign=top;spacingLeft=4;spacingRight=4;overflow=hidden;rotatable=0;points=[[0,0.5],[1,0.5]];portConstraint=eastwest;" parent="37" vertex="1">
                    <mxGeometry y="86" width="240" height="26" as="geometry"/>
                </mxCell>
                <mxCell id="42" value="+ attach(Observer): void" style="text;strokeColor=none;fillColor=none;align=left;verticalAlign=top;spacingLeft=4;spacingRight=4;overflow=hidden;rotatable=0;points=[[0,0.5],[1,0.5]];portConstraint=eastwest;" parent="37" vertex="1">
                    <mxGeometry y="112" width="240" height="26" as="geometry"/>
                </mxCell>
                <mxCell id="43" value="+ detach(Observer): void" style="text;strokeColor=none;fillColor=none;align=left;verticalAlign=top;spacingLeft=4;spacingRight=4;overflow=hidden;rotatable=0;points=[[0,0.5],[1,0.5]];portConstraint=eastwest;" parent="37" vertex="1">
                    <mxGeometry y="138" width="240" height="26" as="geometry"/>
                </mxCell>
                <mxCell id="44" value="+ notifyObservers(): void" style="text;strokeColor=none;fillColor=none;align=left;verticalAlign=top;spacingLeft=4;spacingRight=4;overflow=hidden;rotatable=0;points=[[0,0.5],[1,0.5]];portConstraint=eastwest;" parent="37" vertex="1">
                    <mxGeometry y="164" width="240" height="26" as="geometry"/>
                </mxCell>
                <mxCell id="45" value="+ setState(String): void" style="text;strokeColor=none;fillColor=none;align=left;verticalAlign=top;spacingLeft=4;spacingRight=4;overflow=hidden;rotatable=0;points=[[0,0.5],[1,0.5]];portConstraint=eastwest;" parent="37" vertex="1">
                    <mxGeometry y="190" width="240" height="26" as="geometry"/>
                </mxCell>
                <mxCell id="46" value="+ getState(): String" style="text;strokeColor=none;fillColor=none;align=left;verticalAlign=top;spacingLeft=4;spacingRight=4;overflow=hidden;rotatable=0;points=[[0,0.5],[1,0.5]];portConstraint=eastwest;" parent="37" vertex="1">
                    <mxGeometry y="216" width="240" height="26" as="geometry"/>
                </mxCell>
                <mxCell id="48" value="Observer" style="swimlane;fontStyle=1;align=center;verticalAlign=top;childLayout=stackLayout;horizontal=1;startSize=26;horizontalStack=0;resizeParent=1;resizeParentMax=0;resizeLast=0;collapsible=1;marginBottom=0;" parent="1" vertex="1">
                    <mxGeometry x="480" y="280" width="240" height="320" as="geometry"/>
                </mxCell>
                <mxCell id="49" value="- name: String" style="text;strokeColor=none;fillColor=none;align=left;verticalAlign=top;spacingLeft=4;spacingRight=4;overflow=hidden;rotatable=0;points=[[0,0.5],[1,0.5]];portConstraint=eastwest;" parent="48" vertex="1">
                    <mxGeometry y="26" width="240" height="26" as="geometry"/>
                </mxCell>
                <mxCell id="50" value="- s: Subject" style="text;strokeColor=none;fillColor=none;align=left;verticalAlign=top;spacingLeft=4;spacingRight=4;overflow=hidden;rotatable=0;points=[[0,0.5],[1,0.5]];portConstraint=eastwest;" parent="48" vertex="1">
                    <mxGeometry y="52" width="240" height="26" as="geometry"/>
                </mxCell>
                <mxCell id="60" value="- pushed: boolean&#10;: " style="text;strokeColor=none;fillColor=none;align=left;verticalAlign=top;spacingLeft=4;spacingRight=4;overflow=hidden;rotatable=0;points=[[0,0.5],[1,0.5]];portConstraint=eastwest;" vertex="1" parent="48">
                    <mxGeometry y="78" width="240" height="26" as="geometry"/>
                </mxCell>
                <mxCell id="51" value="" style="line;strokeWidth=1;fillColor=none;align=left;verticalAlign=middle;spacingTop=-1;spacingLeft=3;spacingRight=3;rotatable=0;labelPosition=right;points=[];portConstraint=eastwest;strokeColor=inherit;" parent="48" vertex="1">
                    <mxGeometry y="104" width="240" height="8" as="geometry"/>
                </mxCell>
                <mxCell id="52" value="+ Observer()" style="text;strokeColor=none;fillColor=none;align=left;verticalAlign=top;spacingLeft=4;spacingRight=4;overflow=hidden;rotatable=0;points=[[0,0.5],[1,0.5]];portConstraint=eastwest;" parent="48" vertex="1">
                    <mxGeometry y="112" width="240" height="26" as="geometry"/>
                </mxCell>
                <mxCell id="53" value="+ subscribe(): void" style="text;strokeColor=none;fillColor=none;align=left;verticalAlign=top;spacingLeft=4;spacingRight=4;overflow=hidden;rotatable=0;points=[[0,0.5],[1,0.5]];portConstraint=eastwest;" parent="48" vertex="1">
                    <mxGeometry y="138" width="240" height="26" as="geometry"/>
                </mxCell>
                <mxCell id="63" value="+ unsubscribe(): void" style="text;strokeColor=none;fillColor=none;align=left;verticalAlign=top;spacingLeft=4;spacingRight=4;overflow=hidden;rotatable=0;points=[[0,0.5],[1,0.5]];portConstraint=eastwest;" vertex="1" parent="48">
                    <mxGeometry y="164" width="240" height="26" as="geometry"/>
                </mxCell>
                <mxCell id="54" value="+ update(): void" style="text;strokeColor=none;fillColor=none;align=left;verticalAlign=top;spacingLeft=4;spacingRight=4;overflow=hidden;rotatable=0;points=[[0,0.5],[1,0.5]];portConstraint=eastwest;" parent="48" vertex="1">
                    <mxGeometry y="190" width="240" height="26" as="geometry"/>
                </mxCell>
                <mxCell id="61" value="+ update(String): void" style="text;strokeColor=none;fillColor=none;align=left;verticalAlign=top;spacingLeft=4;spacingRight=4;overflow=hidden;rotatable=0;points=[[0,0.5],[1,0.5]];portConstraint=eastwest;" vertex="1" parent="48">
                    <mxGeometry y="216" width="240" height="26" as="geometry"/>
                </mxCell>
                <mxCell id="55" value="+ update(String): void" style="text;strokeColor=none;fillColor=none;align=left;verticalAlign=top;spacingLeft=4;spacingRight=4;overflow=hidden;rotatable=0;points=[[0,0.5],[1,0.5]];portConstraint=eastwest;" parent="48" vertex="1">
                    <mxGeometry y="242" width="240" height="26" as="geometry"/>
                </mxCell>
                <mxCell id="64" value="+ isPushed(): boolean" style="text;strokeColor=none;fillColor=none;align=left;verticalAlign=top;spacingLeft=4;spacingRight=4;overflow=hidden;rotatable=0;points=[[0,0.5],[1,0.5]];portConstraint=eastwest;" vertex="1" parent="48">
                    <mxGeometry y="268" width="240" height="26" as="geometry"/>
                </mxCell>
                <mxCell id="62" value="+ setPushed(boolean): void" style="text;strokeColor=none;fillColor=none;align=left;verticalAlign=top;spacingLeft=4;spacingRight=4;overflow=hidden;rotatable=0;points=[[0,0.5],[1,0.5]];portConstraint=eastwest;" vertex="1" parent="48">
                    <mxGeometry y="294" width="240" height="26" as="geometry"/>
                </mxCell>
                <mxCell id="58" value="&lt;p style=&quot;margin: 0px ; margin-top: 4px ; text-align: center&quot;&gt;&lt;i&gt;&amp;lt;&amp;lt;Interface&amp;gt;&amp;gt;&lt;/i&gt;&lt;br&gt;&lt;b&gt;&lt;font style=&quot;font-size: 14px&quot;&gt;IObserve&lt;/font&gt;&lt;/b&gt;&lt;/p&gt;&lt;hr size=&quot;1&quot;&gt;&lt;p style=&quot;margin: 0px 0px 0px 4px; font-size: 13px;&quot;&gt;&lt;font style=&quot;font-size: 13px;&quot;&gt;&lt;i style=&quot;&quot;&gt;+ update(): void&lt;br&gt;+&amp;nbsp;update(String): void&lt;br&gt;&lt;/i&gt;&lt;/font&gt;&lt;/p&gt;&lt;p style=&quot;margin: 0px 0px 0px 4px; font-size: 13px;&quot;&gt;&lt;font style=&quot;font-size: 13px;&quot;&gt;&lt;font style=&quot;font-size: 13px;&quot;&gt;&lt;i&gt;+ subscribe(): void&lt;/i&gt;&lt;/font&gt;&lt;br&gt;&lt;/font&gt;&lt;/p&gt;&lt;p style=&quot;margin: 0px 0px 0px 4px; font-size: 13px;&quot;&gt;&lt;font style=&quot;font-size: 13px;&quot;&gt;+ &lt;i style=&quot;&quot;&gt;unsubscribe():void&lt;/i&gt;&lt;/font&gt;&lt;/p&gt;&lt;p style=&quot;margin: 0px ; margin-left: 4px&quot;&gt;&lt;font style=&quot;font-size: 14px&quot;&gt;&lt;span style=&quot;color: rgba(0, 0, 0, 0); font-family: monospace; font-size: 0px;&quot;&gt;%3CmxGraphModel%3E%3Croot%3E%3CmxCell%20id%3D%220%22%2F%3E%3CmxCell%20id%3D%221%22%20parent%3D%220%22%2F%3E%3CmxCell%20id%3D%222%22%20value%3D%22%2B%20unsubscribe()%3A%20void%22%20style%3D%22text%3BstrokeColor%3Dnone%3BfillColor%3Dnone%3Balign%3Dleft%3BverticalAlign%3Dtop%3BspacingLeft%3D4%3BspacingRight%3D4%3Boverflow%3Dhidden%3Brotatable%3D0%3Bpoints%3D%5B%5B0%2C0.5%5D%2C%5B1%2C0.5%5D%5D%3BportConstraint%3Deastwest%3B%22%20vertex%3D%221%22%20parent%3D%221%22%3E%3CmxGeometry%20x%3D%22480%22%20y%3D%22444%22%20width%3D%22240%22%20height%3D%2226%22%20as%3D%22geometry%22%2F%3E%3C%2FmxCell%3E%3C%2Froot%3E%3C%2FmxGraphModel%3E&lt;/span&gt;&lt;/font&gt;&lt;/p&gt;&lt;span style=&quot;color: rgba(0, 0, 0, 0); font-family: monospace; font-size: 0px; background-color: initial;&quot;&gt;GraphModel%3E%3Croot%3E%3CmxCell%20id%3D%220%22%2F%3E%3CmxCell%20id%3D%221%22%20parent%3D%220%22%2F%3E%3CmxCell%20id%3D%222%22%20value%3D%22%2B%20unsubscribe()%3A%20void%22%20style%3D%22text%3BstrokeColor%3Dnone%3BfillColor%3Dnone%3Balign%3Dleft%3BverticalAlign%3Dtop%3BspacingLeft%3D4%3BspacingRight%3D4%3Boverflow%3Dhidden%3Brotatable%3D0%3Bpoints%3D%5B%5B0%2C0.5%5D%2C%5B1%2C0.5%5D%5D%3BportConstraint%3Deastwest%3B%22%20vertex%3D%221%22%20parent%3D%221%22%3E%3CmxGeometry%20x%3D%22480%22%20y%3D%22444%22%20width%3D%22240%22%20height%3D%2226%22%20as%3D%22geometry%22%2F%3E%3C%2FmxCell%3E%3C%2Froot%3E%3C%2FmxGraphModel%3E&lt;/span&gt;" style="verticalAlign=top;align=left;overflow=fill;fontSize=12;fontFamily=Helvetica;html=1;" parent="1" vertex="1">
                    <mxGeometry x="480" y="80" width="240" height="120" as="geometry"/>
                </mxCell>
                <mxCell id="59" value="" style="endArrow=block;dashed=1;endFill=0;endSize=12;html=1;exitX=0.5;exitY=0;exitDx=0;exitDy=0;entryX=0.5;entryY=1;entryDx=0;entryDy=0;" parent="1" edge="1">
                    <mxGeometry width="160" relative="1" as="geometry">
                        <mxPoint x="599.5" y="280" as="sourcePoint"/>
                        <mxPoint x="599.5" y="200" as="targetPoint"/>
                    </mxGeometry>
                </mxCell>
            </root>
        </mxGraphModel>
    </diagram>
    <diagram name="observer_abstract_class" id="XB_M_hnxvpLGYGITTDiH">
        <mxGraphModel dx="856" dy="607" grid="1" gridSize="10" guides="1" tooltips="1" connect="1" arrows="1" fold="1" page="1" pageScale="1" pageWidth="827" pageHeight="1169" math="0" shadow="0">
            <root>
                <mxCell id="POL3i28iTh2GQ_S_40G1-0"/>
                <mxCell id="POL3i28iTh2GQ_S_40G1-1" parent="POL3i28iTh2GQ_S_40G1-0"/>
                <mxCell id="POL3i28iTh2GQ_S_40G1-2" style="edgeStyle=orthogonalEdgeStyle;rounded=0;orthogonalLoop=1;jettySize=auto;html=1;exitX=0.5;exitY=1;exitDx=0;exitDy=0;" parent="POL3i28iTh2GQ_S_40G1-1" edge="1">
                    <mxGeometry relative="1" as="geometry">
                        <mxPoint x="660" y="375" as="sourcePoint"/>
                        <mxPoint x="660" y="375" as="targetPoint"/>
                    </mxGeometry>
                </mxCell>
                <mxCell id="POL3i28iTh2GQ_S_40G1-3" style="edgeStyle=orthogonalEdgeStyle;rounded=0;orthogonalLoop=1;jettySize=auto;html=1;exitX=0.5;exitY=1;exitDx=0;exitDy=0;" parent="POL3i28iTh2GQ_S_40G1-1" edge="1">
                    <mxGeometry relative="1" as="geometry">
                        <mxPoint x="380" y="280" as="sourcePoint"/>
                        <mxPoint x="380" y="280" as="targetPoint"/>
                    </mxGeometry>
                </mxCell>
                <mxCell id="POL3i28iTh2GQ_S_40G1-4" style="edgeStyle=none;html=1;exitX=1;exitY=0.5;exitDx=0;exitDy=0;" parent="POL3i28iTh2GQ_S_40G1-1" source="POL3i28iTh2GQ_S_40G1-5" edge="1">
                    <mxGeometry relative="1" as="geometry">
                        <mxPoint x="320" y="140" as="targetPoint"/>
                    </mxGeometry>
                </mxCell>
                <mxCell id="POL3i28iTh2GQ_S_40G1-5" value="&lt;p style=&quot;margin: 0px ; margin-top: 4px ; text-align: center&quot;&gt;&lt;i&gt;&amp;lt;&amp;lt;Interface&amp;gt;&amp;gt;&lt;/i&gt;&lt;br&gt;&lt;b&gt;&lt;font style=&quot;font-size: 14px&quot;&gt;Observable&lt;/font&gt;&lt;/b&gt;&lt;/p&gt;&lt;hr size=&quot;1&quot;&gt;&lt;p style=&quot;margin: 0px ; margin-left: 4px&quot;&gt;&lt;font style=&quot;font-size: 14px&quot;&gt;+ &lt;i&gt;attach&lt;/i&gt;(Observer): void&lt;br&gt;+ &lt;i&gt;detatch&lt;/i&gt;(Observer): void&lt;br&gt;&lt;/font&gt;&lt;/p&gt;&lt;p style=&quot;margin: 0px ; margin-left: 4px&quot;&gt;&lt;font style=&quot;font-size: 14px&quot;&gt;+ &lt;i&gt;notifyObservers&lt;/i&gt;(): void&lt;/font&gt;&lt;br&gt;&lt;/p&gt;" style="verticalAlign=top;align=left;overflow=fill;fontSize=12;fontFamily=Helvetica;html=1;" parent="POL3i28iTh2GQ_S_40G1-1" vertex="1">
                    <mxGeometry x="80" y="80" width="240" height="120" as="geometry"/>
                </mxCell>
                <mxCell id="POL3i28iTh2GQ_S_40G1-6" value="" style="endArrow=block;dashed=1;endFill=0;endSize=12;html=1;exitX=0.5;exitY=0;exitDx=0;exitDy=0;entryX=0.5;entryY=1;entryDx=0;entryDy=0;" parent="POL3i28iTh2GQ_S_40G1-1" source="POL3i28iTh2GQ_S_40G1-9" target="POL3i28iTh2GQ_S_40G1-5" edge="1">
                    <mxGeometry width="160" relative="1" as="geometry">
                        <mxPoint x="190" y="245" as="sourcePoint"/>
                        <mxPoint x="490" y="280" as="targetPoint"/>
                    </mxGeometry>
                </mxCell>
                <mxCell id="POL3i28iTh2GQ_S_40G1-7" value="" style="endArrow=open;endFill=1;endSize=12;html=1;exitX=0;exitY=0.225;exitDx=0;exitDy=0;exitPerimeter=0;entryX=1.003;entryY=0.225;entryDx=0;entryDy=0;entryPerimeter=0;" parent="POL3i28iTh2GQ_S_40G1-1" source="POL3i28iTh2GQ_S_40G1-24" target="POL3i28iTh2GQ_S_40G1-14" edge="1">
                    <mxGeometry width="160" relative="1" as="geometry">
                        <mxPoint x="260" y="470" as="sourcePoint"/>
                        <mxPoint x="140" y="620" as="targetPoint"/>
                        <Array as="points"/>
                    </mxGeometry>
                </mxCell>
                <mxCell id="POL3i28iTh2GQ_S_40G1-8" value="" style="endArrow=open;endFill=1;endSize=12;html=1;entryX=0;entryY=0.5;entryDx=0;entryDy=0;exitX=1;exitY=0.5;exitDx=0;exitDy=0;" parent="POL3i28iTh2GQ_S_40G1-1" source="POL3i28iTh2GQ_S_40G1-5" edge="1">
                    <mxGeometry width="160" relative="1" as="geometry">
                        <mxPoint x="290" y="118" as="sourcePoint"/>
                        <mxPoint x="480" y="140" as="targetPoint"/>
                        <Array as="points"/>
                    </mxGeometry>
                </mxCell>
                <mxCell id="POL3i28iTh2GQ_S_40G1-9" value="Subject" style="swimlane;fontStyle=1;align=center;verticalAlign=top;childLayout=stackLayout;horizontal=1;startSize=26;horizontalStack=0;resizeParent=1;resizeParentMax=0;resizeLast=0;collapsible=1;marginBottom=0;" parent="POL3i28iTh2GQ_S_40G1-1" vertex="1">
                    <mxGeometry x="80" y="280" width="240" height="242" as="geometry"/>
                </mxCell>
                <mxCell id="POL3i28iTh2GQ_S_40G1-10" value="- state: String" style="text;strokeColor=none;fillColor=none;align=left;verticalAlign=top;spacingLeft=4;spacingRight=4;overflow=hidden;rotatable=0;points=[[0,0.5],[1,0.5]];portConstraint=eastwest;" parent="POL3i28iTh2GQ_S_40G1-9" vertex="1">
                    <mxGeometry y="26" width="240" height="26" as="geometry"/>
                </mxCell>
                <mxCell id="POL3i28iTh2GQ_S_40G1-11" value="- observers: List&lt;Observer&gt;" style="text;strokeColor=none;fillColor=none;align=left;verticalAlign=top;spacingLeft=4;spacingRight=4;overflow=hidden;rotatable=0;points=[[0,0.5],[1,0.5]];portConstraint=eastwest;" parent="POL3i28iTh2GQ_S_40G1-9" vertex="1">
                    <mxGeometry y="52" width="240" height="26" as="geometry"/>
                </mxCell>
                <mxCell id="POL3i28iTh2GQ_S_40G1-12" value="" style="line;strokeWidth=1;fillColor=none;align=left;verticalAlign=middle;spacingTop=-1;spacingLeft=3;spacingRight=3;rotatable=0;labelPosition=right;points=[];portConstraint=eastwest;strokeColor=inherit;" parent="POL3i28iTh2GQ_S_40G1-9" vertex="1">
                    <mxGeometry y="78" width="240" height="8" as="geometry"/>
                </mxCell>
                <mxCell id="POL3i28iTh2GQ_S_40G1-13" value="+ Subject()" style="text;strokeColor=none;fillColor=none;align=left;verticalAlign=top;spacingLeft=4;spacingRight=4;overflow=hidden;rotatable=0;points=[[0,0.5],[1,0.5]];portConstraint=eastwest;" parent="POL3i28iTh2GQ_S_40G1-9" vertex="1">
                    <mxGeometry y="86" width="240" height="26" as="geometry"/>
                </mxCell>
                <mxCell id="POL3i28iTh2GQ_S_40G1-14" value="+ attach(Observer): void" style="text;strokeColor=none;fillColor=none;align=left;verticalAlign=top;spacingLeft=4;spacingRight=4;overflow=hidden;rotatable=0;points=[[0,0.5],[1,0.5]];portConstraint=eastwest;" parent="POL3i28iTh2GQ_S_40G1-9" vertex="1">
                    <mxGeometry y="112" width="240" height="26" as="geometry"/>
                </mxCell>
                <mxCell id="POL3i28iTh2GQ_S_40G1-15" value="+ detach(Observer): void" style="text;strokeColor=none;fillColor=none;align=left;verticalAlign=top;spacingLeft=4;spacingRight=4;overflow=hidden;rotatable=0;points=[[0,0.5],[1,0.5]];portConstraint=eastwest;" parent="POL3i28iTh2GQ_S_40G1-9" vertex="1">
                    <mxGeometry y="138" width="240" height="26" as="geometry"/>
                </mxCell>
                <mxCell id="POL3i28iTh2GQ_S_40G1-16" value="+ notifyObservers(): void" style="text;strokeColor=none;fillColor=none;align=left;verticalAlign=top;spacingLeft=4;spacingRight=4;overflow=hidden;rotatable=0;points=[[0,0.5],[1,0.5]];portConstraint=eastwest;" parent="POL3i28iTh2GQ_S_40G1-9" vertex="1">
                    <mxGeometry y="164" width="240" height="26" as="geometry"/>
                </mxCell>
                <mxCell id="POL3i28iTh2GQ_S_40G1-17" value="+ setState(String): void" style="text;strokeColor=none;fillColor=none;align=left;verticalAlign=top;spacingLeft=4;spacingRight=4;overflow=hidden;rotatable=0;points=[[0,0.5],[1,0.5]];portConstraint=eastwest;" parent="POL3i28iTh2GQ_S_40G1-9" vertex="1">
                    <mxGeometry y="190" width="240" height="26" as="geometry"/>
                </mxCell>
                <mxCell id="POL3i28iTh2GQ_S_40G1-18" value="+ getState(): String" style="text;strokeColor=none;fillColor=none;align=left;verticalAlign=top;spacingLeft=4;spacingRight=4;overflow=hidden;rotatable=0;points=[[0,0.5],[1,0.5]];portConstraint=eastwest;" parent="POL3i28iTh2GQ_S_40G1-9" vertex="1">
                    <mxGeometry y="216" width="240" height="26" as="geometry"/>
                </mxCell>
                <mxCell id="POL3i28iTh2GQ_S_40G1-19" value="Observer" style="swimlane;fontStyle=1;align=center;verticalAlign=top;childLayout=stackLayout;horizontal=1;startSize=26;horizontalStack=0;resizeParent=1;resizeParentMax=0;resizeLast=0;collapsible=1;marginBottom=0;" parent="POL3i28iTh2GQ_S_40G1-1" vertex="1">
                    <mxGeometry x="480" y="280" width="240" height="190" as="geometry"/>
                </mxCell>
                <mxCell id="POL3i28iTh2GQ_S_40G1-20" value="- name: String" style="text;strokeColor=none;fillColor=none;align=left;verticalAlign=top;spacingLeft=4;spacingRight=4;overflow=hidden;rotatable=0;points=[[0,0.5],[1,0.5]];portConstraint=eastwest;" parent="POL3i28iTh2GQ_S_40G1-19" vertex="1">
                    <mxGeometry y="26" width="240" height="26" as="geometry"/>
                </mxCell>
                <mxCell id="POL3i28iTh2GQ_S_40G1-21" value="- s: Subject" style="text;strokeColor=none;fillColor=none;align=left;verticalAlign=top;spacingLeft=4;spacingRight=4;overflow=hidden;rotatable=0;points=[[0,0.5],[1,0.5]];portConstraint=eastwest;" parent="POL3i28iTh2GQ_S_40G1-19" vertex="1">
                    <mxGeometry y="52" width="240" height="26" as="geometry"/>
                </mxCell>
                <mxCell id="POL3i28iTh2GQ_S_40G1-22" value="" style="line;strokeWidth=1;fillColor=none;align=left;verticalAlign=middle;spacingTop=-1;spacingLeft=3;spacingRight=3;rotatable=0;labelPosition=right;points=[];portConstraint=eastwest;strokeColor=inherit;" parent="POL3i28iTh2GQ_S_40G1-19" vertex="1">
                    <mxGeometry y="78" width="240" height="8" as="geometry"/>
                </mxCell>
                <mxCell id="POL3i28iTh2GQ_S_40G1-23" value="+ Observer()" style="text;strokeColor=none;fillColor=none;align=left;verticalAlign=top;spacingLeft=4;spacingRight=4;overflow=hidden;rotatable=0;points=[[0,0.5],[1,0.5]];portConstraint=eastwest;" parent="POL3i28iTh2GQ_S_40G1-19" vertex="1">
                    <mxGeometry y="86" width="240" height="26" as="geometry"/>
                </mxCell>
                <mxCell id="POL3i28iTh2GQ_S_40G1-24" value="+ subscribe(): void" style="text;strokeColor=none;fillColor=none;align=left;verticalAlign=top;spacingLeft=4;spacingRight=4;overflow=hidden;rotatable=0;points=[[0,0.5],[1,0.5]];portConstraint=eastwest;" parent="POL3i28iTh2GQ_S_40G1-19" vertex="1">
                    <mxGeometry y="112" width="240" height="26" as="geometry"/>
                </mxCell>
                <mxCell id="POL3i28iTh2GQ_S_40G1-25" value="+ update(): void" style="text;strokeColor=none;fillColor=none;align=left;verticalAlign=top;spacingLeft=4;spacingRight=4;overflow=hidden;rotatable=0;points=[[0,0.5],[1,0.5]];portConstraint=eastwest;" parent="POL3i28iTh2GQ_S_40G1-19" vertex="1">
                    <mxGeometry y="138" width="240" height="26" as="geometry"/>
                </mxCell>
                <mxCell id="POL3i28iTh2GQ_S_40G1-26" value="+ update(String): void" style="text;strokeColor=none;fillColor=none;align=left;verticalAlign=top;spacingLeft=4;spacingRight=4;overflow=hidden;rotatable=0;points=[[0,0.5],[1,0.5]];portConstraint=eastwest;" parent="POL3i28iTh2GQ_S_40G1-19" vertex="1">
                    <mxGeometry y="164" width="240" height="26" as="geometry"/>
                </mxCell>
                <mxCell id="SfUSjvz3gGztC0RgXbXA-0" value="AbstractObserver" style="swimlane;fontStyle=1;align=center;verticalAlign=top;childLayout=stackLayout;horizontal=1;startSize=26;horizontalStack=0;resizeParent=1;resizeParentMax=0;resizeLast=0;collapsible=1;marginBottom=0;" parent="POL3i28iTh2GQ_S_40G1-1" vertex="1">
                    <mxGeometry x="480" y="80" width="240" height="112" as="geometry"/>
                </mxCell>
                <mxCell id="SfUSjvz3gGztC0RgXbXA-3" value="" style="line;strokeWidth=1;fillColor=none;align=left;verticalAlign=middle;spacingTop=-1;spacingLeft=3;spacingRight=3;rotatable=0;labelPosition=right;points=[];portConstraint=eastwest;strokeColor=inherit;" parent="SfUSjvz3gGztC0RgXbXA-0" vertex="1">
                    <mxGeometry y="26" width="240" height="8" as="geometry"/>
                </mxCell>
                <mxCell id="SfUSjvz3gGztC0RgXbXA-5" value="+ update(): void" style="text;strokeColor=none;fillColor=none;align=left;verticalAlign=top;spacingLeft=4;spacingRight=4;overflow=hidden;rotatable=0;points=[[0,0.5],[1,0.5]];portConstraint=eastwest;" parent="SfUSjvz3gGztC0RgXbXA-0" vertex="1">
                    <mxGeometry y="34" width="240" height="26" as="geometry"/>
                </mxCell>
                <mxCell id="SfUSjvz3gGztC0RgXbXA-6" value="+ update(String): void" style="text;strokeColor=none;fillColor=none;align=left;verticalAlign=top;spacingLeft=4;spacingRight=4;overflow=hidden;rotatable=0;points=[[0,0.5],[1,0.5]];portConstraint=eastwest;" parent="SfUSjvz3gGztC0RgXbXA-0" vertex="1">
                    <mxGeometry y="60" width="240" height="26" as="geometry"/>
                </mxCell>
                <mxCell id="SfUSjvz3gGztC0RgXbXA-7" value="+ subscribe(): void" style="text;strokeColor=none;fillColor=none;align=left;verticalAlign=top;spacingLeft=4;spacingRight=4;overflow=hidden;rotatable=0;points=[[0,0.5],[1,0.5]];portConstraint=eastwest;" parent="SfUSjvz3gGztC0RgXbXA-0" vertex="1">
                    <mxGeometry y="86" width="240" height="26" as="geometry"/>
                </mxCell>
                <mxCell id="E3SG2cjWT2w9siCpgrEA-0" value="Extends" style="endArrow=block;endSize=16;endFill=0;html=1;entryX=0.496;entryY=1.032;entryDx=0;entryDy=0;entryPerimeter=0;exitX=0.5;exitY=0;exitDx=0;exitDy=0;" parent="POL3i28iTh2GQ_S_40G1-1" source="POL3i28iTh2GQ_S_40G1-19" target="SfUSjvz3gGztC0RgXbXA-7" edge="1">
                    <mxGeometry width="160" relative="1" as="geometry">
                        <mxPoint x="330" y="310" as="sourcePoint"/>
                        <mxPoint x="490" y="310" as="targetPoint"/>
                    </mxGeometry>
                </mxCell>
            </root>
        </mxGraphModel>
    </diagram>
</mxfile>